HIERARCHY
ROOT Hips
{
 OFFSET 0.000000 0.000000 0.000000
 CHANNELS 6 Xposition Yposition Zposition Yrotation Xrotation Zrotation
 JOINT Chest
 {
  OFFSET 0.000000 9.585900 0.002600
  CHANNELS 3 Yrotation Xrotation Zrotation
  JOINT Chest2
  {
   OFFSET 0.000000 9.601200 -0.005300
   CHANNELS 3 Yrotation Xrotation Zrotation
   JOINT Chest3
   {
    OFFSET 0.000000 9.561800 0.000000
    CHANNELS 3 Yrotation Xrotation Zrotation
    JOINT Chest4
    {
     OFFSET 0.000000 9.552100 0.000000
     CHANNELS 3 Yrotation Xrotation Zrotation
     JOINT Neck
     {
      OFFSET 0.000000 14.453000 0.000000
      CHANNELS 3 Yrotation Xrotation Zrotation
      JOINT Head
      {
       OFFSET 0.000000 8.936500 -0.011300
       CHANNELS 3 Yrotation Xrotation Zrotation
       End Site
       {
        OFFSET 0.000000 17.073600 -0.006000
       }
      }
     }
     JOINT RightCollar
     {
      OFFSET -2.921100 9.558500 0.000000
      CHANNELS 3 Yrotation Xrotation Zrotation
      JOINT RightShoulder
      {
       OFFSET -13.519700 0.000000 0.000000
       CHANNELS 3 Yrotation Xrotation Zrotation
       JOINT RightElbow
       {
        OFFSET 0.000000 -29.696600 0.000000
        CHANNELS 3 Yrotation Xrotation Zrotation
        JOINT RightWrist
        {
         OFFSET 0.000000 -24.004700 0.000000
         CHANNELS 3 Yrotation Xrotation Zrotation
         End Site
         {
          OFFSET 0.000000 -17.728500 0.000000
         }
        }
       }
      }
     }
     JOINT LeftCollar
     {
      OFFSET 2.921100 9.558500 0.000000
      CHANNELS 3 Yrotation Xrotation Zrotation
      JOINT LeftShoulder
      {
       OFFSET 13.519700 0.000000 0.000000
       CHANNELS 3 Yrotation Xrotation Zrotation
       JOINT LeftElbow
       {
        OFFSET 0.000000 -29.696600 0.000000
        CHANNELS 3 Yrotation Xrotation Zrotation
        JOINT LeftWrist
        {
         OFFSET 0.000000 -24.004700 0.000000
         CHANNELS 3 Yrotation Xrotation Zrotation
         End Site
         {
          OFFSET 0.000000 -17.728500 0.000000
         }
        }
       }
      }
     }
    }
   }
  }
 }
 JOINT RightHip
 {
  OFFSET -7.771700 -0.012900 -0.001300
  CHANNELS 3 Yrotation Xrotation Zrotation
  JOINT RightKnee
  {
   OFFSET 0.000000 -40.869800 0.001200
   CHANNELS 3 Yrotation Xrotation Zrotation
   JOINT RightAnkle
   {
    OFFSET 0.000000 -39.717900 0.002100
    CHANNELS 3 Yrotation Xrotation Zrotation
    JOINT RightToe
    {
     OFFSET 0.000000 -4.965400 11.033500
     CHANNELS 3 Yrotation Xrotation Zrotation
     End Site
     {
      OFFSET 0.000000 -1.423100 5.872300
     }
    }
   }
  }
 }
 JOINT LeftHip
 {
  OFFSET 7.771700 -0.012900 -0.001300
  CHANNELS 3 Yrotation Xrotation Zrotation
  JOINT LeftKnee
  {
   OFFSET 0.000000 -40.869800 0.001200
   CHANNELS 3 Yrotation Xrotation Zrotation
   JOINT LeftAnkle
   {
    OFFSET 0.000000 -39.717900 0.002100
    CHANNELS 3 Yrotation Xrotation Zrotation
    JOINT LeftToe
    {
     OFFSET 0.000000 -4.965400 11.033500
     CHANNELS 3 Yrotation Xrotation Zrotation
     End Site
     {
      OFFSET 0.000000 -1.423100 5.872300
     }
    }
   }
  }
 }
}
MOTION
Frames: 11
Frame Time: 0.008333
0.000000 85.388000 0.000000 0.000000 -5.767877 0.000000 0.000000 11.653817 0.000000 0.000000 -5.885947 0.000000 0.000000 -0.000000 0.000000 0.000000 -0.000000 0.000000 0.000000 12.528835 0.000000 0.000000 0.711642 0.000000 0.000000 -0.000000 0.000000 0.000000 0.000000 -90.000000 0.000000 -2.309062 0.000000 0.000000 2.309062 0.000000 0.000000 -0.000000 0.000000 0.000000 -0.000000 90.000000 0.000000 -2.309062 0.000000 0.000000 2.309062 0.000000 0.000000 8.520406 0.000000 0.000000 1.905762 0.000000 -0.000000 -4.658285 0.000000 0.000000 -0.000000 0.000000 0.000000 8.520406 0.000000 0.000000 1.905762 0.000000 -0.000000 -4.658285 0.000000 0.000000 -0.000000 0.000000
-164.281173 49.281497 17.790048 176.517305 -28.495630 -3.958175 0.785551 16.150317 2.893620 0.044480 1.613311 0.258849 0.087306 2.709779 0.431065 0.591153 14.246097 2.397794 11.246738 14.815988 2.339452 20.176211 -7.871540 0.219246 -4.743510 -1.146710 -2.028508 1.189405 -12.260821 -13.536419 -44.609985 -62.326069 86.217090 5.837557 7.731681 -17.140639 -0.346433 -2.897426 2.494251 -2.534137 -7.113845 15.514720 85.055259 -77.102220 -117.030771 0.899363 11.418628 5.077741 -1.888356 -56.228102 -7.169741 -173.407735 83.864449 -161.152551 -30.310554 -2.304915 -2.932210 -0.065943 -11.503155 0.786198 -16.576529 -57.516258 20.562985 -74.113986 66.267093 -78.790252 30.595860 6.203521 14.836393 -0.028694 -0.257988 -0.009610
-164.278611 49.280564 17.798232 176.520670 -28.460515 -3.981171 0.776953 16.114210 2.915778 0.029407 1.606119 0.264144 0.085617 2.701211 0.428766 0.578569 14.229937 2.402753 11.438490 14.777669 2.348894 20.534618 -7.923637 0.162923 -4.801637 -1.103588 -2.019768 1.111130 -12.430429 -13.525872 -45.474286 -62.138569 86.811990 5.721211 7.811842 -17.279555 -0.332359 -2.900730 2.535299 -2.320819 -7.135212 15.544225 86.281701 -76.812680 -117.979826 0.930556 11.428671 5.145168 -1.930118 -56.248991 -7.126568 -173.228481 83.876661 -160.969298 -30.258872 -2.337588 -2.959332 -0.054795 -11.468093 0.796767 -16.632427 -57.541522 20.616011 -74.088264 66.267773 -78.760576 30.604666 6.203406 14.837258 -0.039247 -0.249633 -0.012618
-164.278684 49.281572 17.803078 176.534290 -28.448145 -3.995043 0.758383 16.101996 2.924270 0.020063 1.605415 0.269096 0.062363 2.680208 0.437147 0.577882 14.227381 2.397502 11.615588 14.733528 2.365016 20.863799 -7.988691 0.123220 -4.864554 -1.068431 -2.011555 1.032643 -12.565753 -13.525409 -46.495646 -61.916342 87.568022 5.598016 7.944164 -17.404442 -0.304998 -2.891786 2.541782 -2.088358 -7.171976 15.611378 87.745934 -76.474700 -119.186297 0.934505 11.428184 5.186385 -1.966932 -56.241969 -7.097540 -172.868712 83.902960 -160.602009 -30.312100 -2.358787 -2.953883 -0.035439 -11.441709 0.787070 -16.660449 -57.548501 20.630808 -74.065106 66.264266 -78.731927 30.605034 6.214623 14.830359 -0.036261 -0.249587 -0.008673
-164.280841 49.282884 17.807595 176.534439 -28.439093 -3.993579 0.740882 16.095898 2.926420 0.020919 1.607848 0.268707 0.058856 2.674298 0.437623 0.559506 14.213141 2.401082 11.771032 14.684214 2.389475 21.150166 -8.066644 0.105778 -4.931164 -1.040927 -2.006881 0.929136 -12.671853 -13.527511 -47.654584 -61.648713 88.490384 5.472466 8.105662 -17.508000 -0.276318 -2.892030 2.547231 -1.812703 -7.206407 15.684542 89.380524 -76.072784 -120.594627 0.913287 11.399453 5.194619 -1.977923 -56.247851 -7.100488 -172.651036 83.901328 -160.382469 -30.273555 -2.364524 -2.964279 -0.078702 -11.436268 0.793294 -16.657035 -57.558628 20.617628 -74.052403 66.270282 -78.712378 30.611052 6.224100 14.828259 -0.043261 -0.254273 -0.009799
-164.285315 49.283472 17.813519 176.539393 -28.419707 -3.984875 0.718975 16.086159 2.919299 0.021335 1.609694 0.266650 0.055941 2.669370 0.438238 0.544330 14.201190 2.405251 11.897378 14.631530 2.423266 21.379211 -8.155218 0.115345 -5.005513 -1.014929 -2.005494 0.768399 -12.761445 -13.524147 -48.916757 -61.328714 89.575548 5.348718 8.262950 -17.572551 -0.233550 -2.908095 2.578981 -1.496811 -7.237253 15.736861 91.078458 -75.589938 -122.119904 0.882304 11.332074 5.162804 -1.996051 -56.269728 -7.105988 -172.669705 83.904270 -160.413810 -30.251705 -2.364270 -2.969751 -0.047608 -11.434646 0.783152 -16.645580 -57.581909 20.587380 -74.039735 66.278943 -78.690825 30.609422 6.231016 14.823608 -0.044296 -0.254334 -0.009240
-164.290072 49.283175 17.821601 176.543625 -28.386227 -3.978254 0.701386 16.067517 2.913071 0.020332 1.610100 0.266183 0.059023 2.659376 0.435746 0.537957 14.195870 2.407476 11.952493 14.604576 2.442473 21.568355 -8.282793 0.165400 -5.095964 -0.984245 -2.002112 0.521613 -12.843663 -13.504585 -50.243208 -60.964206 90.814158 5.227145 8.371110 -17.590934 -0.186465 -2.917650 2.619824 -1.138264 -7.288007 15.794789 92.734680 -75.008094 -123.673862 0.863743 11.225358 5.094509 -2.028819 -56.306571 -7.104672 -172.712835 83.912203 -160.467189 -30.226593 -2.361879 -2.988934 -0.055086 -11.434926 0.784588 -16.633797 -57.622410 20.558461 -74.024549 66.280904 -78.663494 30.629924 6.244874 14.832994 -0.068004 -0.261040 -0.018375
-164.295002 49.282307 17.831302 176.542182 -28.342550 -3.970711 0.687103 16.041804 2.906039 0.025305 1.608281 0.268853 0.057713 2.649892 0.431735 0.532855 14.191768 2.409113 12.024957 14.542418 2.515270 21.633721 -8.365011 0.223413 -5.186238 -0.950327 -2.010024 0.179882 -12.917871 -13.463118 -51.613134 -60.570910 92.201076 5.107871 8.395424 -17.574109 -0.121211 -2.922666 2.655454 -0.730312 -7.360964 15.864353 94.233862 -74.316482 -125.150735 0.876340 11.081083 4.995504 -2.050929 -56.353897 -7.105006 -172.714110 83.924821 -160.467094 -30.237525 -2.359543 -3.005696 -0.058122 -11.433334 0.782099 -16.608007 -57.679783 20.519194 -74.028783 66.277410 -78.643384 30.669703 6.264597 14.846045 -0.085927 -0.272980 -0.026165
-164.298235 49.284495 17.836183 176.540594 -28.332997 -3.972131 0.683951 16.049618 2.913165 0.030320 1.606685 0.269271 0.050948 2.648432 0.433357 0.527232 14.186551 2.415961 12.051982 14.485528 2.581114 21.623702 -8.445129 0.303439 -5.278704 -0.923409 -2.043585 -0.237380 -12.980371 -13.398754 -53.029127 -60.165694 93.725396 4.995797 8.335819 -17.526466 -0.047741 -2.925577 2.678381 -0.259983 -7.463242 15.940072 95.513710 -73.523962 -126.491105 0.937743 10.897750 4.871906 -2.076195 -56.363483 -7.089285 -172.739245 83.936318 -160.495210 -30.244753 -2.354625 -3.014308 -0.053389 -11.435313 0.778471 -16.601366 -57.693099 20.510044 -74.032230 66.279265 -78.638039 30.665854 6.275427 14.844978 -0.085205 -0.278856 -0.027738
-164.299628 49.288117 17.839289 176.523763 -28.337485 -3.975627 0.706404 16.082422 2.936017 0.029870 1.594447 0.264580 0.048085 2.644159 0.436322 0.523681 14.183250 2.420548 12.021111 14.448422 2.635718 21.541536 -8.535334 0.419254 -5.385030 -0.898067 -2.088350 -0.696637 -13.030776 -13.310462 -54.500056 -59.771798 95.360015 4.893432 8.221871 -17.444295 0.024303 -2.921190 2.709454 0.259189 -7.587962 16.015787 96.608248 -72.648252 -127.714635 1.054303 10.672091 4.737219 -2.089199 -56.360027 -7.063380 -172.783842 83.952140 -160.532641 -30.283834 -2.351703 -3.021498 -0.055204 -11.434596 0.775820 -16.563135 -57.696988 20.483218 -74.049553 66.286883 -78.631388 30.700759 6.322679 14.860154 -0.112171 -0.330046 -0.041351
-164.308561 49.285467 17.853043 176.526145 -28.262879 -3.944472 0.692234 16.028104 2.905889 0.028860 1.595456 0.264264 0.053200 2.640172 0.439006 0.522276 14.191692 2.426275 11.939934 14.405962 2.691877 21.382199 -8.616100 0.559756 -5.505341 -0.890365 -2.142520 -1.165836 -13.065409 -13.203935 -56.040460 -59.419528 97.081598 4.798748 8.087679 -17.335331 0.145514 -2.918143 2.772875 0.757951 -7.732343 16.060271 97.588260 -71.706860 -128.866198 1.214110 10.402036 4.602800 -2.049318 -56.459144 -7.143560 -173.232463 83.946285 -160.972804 -30.253109 -2.314378 -3.031556 -0.051832 -11.468285 0.758963 -16.517774 -57.788385 20.421356 -74.025587 66.278961 -78.575523 30.700552 6.365932 14.851556 -0.100578 -0.342522 -0.036590
